<?xml version="1.0" encoding="UTF-8"?>
<!DOCTYPE svg PUBLIC "-//W3C//DTD SVG 1.1//EN" "http://www.w3.org/Graphics/SVG/1.1/DTD/svg11.dtd">
<svg xmlns="http://www.w3.org/2000/svg" version="1.1" width="50px" height="50px" style="shape-rendering:geometricPrecision; text-rendering:geometricPrecision; image-rendering:optimizeQuality; fill-rule:evenodd; clip-rule:evenodd" xmlns:xlink="http://www.w3.org/1999/xlink">
<g><path style="opacity:0.723" fill="#ff6700" d="M 17.5,1.5 C 41.1541,0.318958 50.6541,11.319 46,34.5C 38.7573,46.8068 28.2573,50.6402 14.5,46C 2.19317,38.7573 -1.64016,28.2573 3,14.5C 6.16246,8.16411 10.9958,3.83077 17.5,1.5 Z M 38.5,16.5 C 42.5711,25.5991 40.5711,33.0991 32.5,39C 15.6637,43.1795 7.83038,36.6795 9,19.5C 11.5929,12.2809 16.7596,8.61424 24.5,8.5C 27.8318,8.29314 30.8318,9.12648 33.5,11C 27.0875,11.7158 20.7542,12.8824 14.5,14.5C 13.8333,15.8333 13.1667,17.1667 12.5,18.5C 14.5,19.1667 16.5,19.8333 18.5,20.5C 16.5,24.8333 14.5,29.1667 12.5,33.5C 13.376,34.2508 14.376,34.7508 15.5,35C 15.1667,35.3333 14.8333,35.6667 14.5,36C 18.2113,36.8253 21.878,36.6586 25.5,35.5C 34.5577,32.3812 38.891,26.0479 38.5,16.5 Z M 37.5,15.5 C 36.0267,14.928 34.6934,14.0946 33.5,13C 35.6856,11.6024 37.0189,12.4357 37.5,15.5 Z M 30.5,28.5 C 32.5684,25.1826 32.9018,21.6826 31.5,18C 26.7982,17.8283 22.1315,17.3283 17.5,16.5C 23.2709,15.1199 28.9376,15.4532 34.5,17.5C 36.269,22.2952 34.9357,25.9619 30.5,28.5 Z M 22.5,19.5 C 23.0967,19.7352 23.4301,20.2352 23.5,21C 22.1621,24.3502 20.8288,27.6835 19.5,31C 20.8333,31.3333 22.1667,31.6667 23.5,32C 21.1667,32.6667 18.8333,32.6667 16.5,32C 18.5989,27.864 20.5989,23.6974 22.5,19.5 Z M 26.5,20.5 C 27.5,20.5 28.5,20.5 29.5,20.5C 29.5596,24.2928 27.8929,26.4594 24.5,27C 25.6687,24.9935 26.3354,22.8268 26.5,20.5 Z"/></g>
<g><path style="opacity:0.741" fill="#ff6800" d="M 18.5,5.5 C 22.5,5.5 26.5,5.5 30.5,5.5C 31.209,6.40397 32.209,6.73731 33.5,6.5C 33.8417,7.33825 34.5084,7.67158 35.5,7.5C 35.5,8.16667 35.8333,8.5 36.5,8.5C 36.5,9.16667 36.8333,9.5 37.5,9.5C 37.5,10.1667 37.8333,10.5 38.5,10.5C 38.5,11.1667 38.8333,11.5 39.5,11.5C 39.5,12.1667 39.8333,12.5 40.5,12.5C 41.1667,13.1667 41.8333,13.8333 42.5,14.5C 41.1667,14.8333 41.1667,15.1667 42.5,15.5C 42.2627,16.791 42.596,17.791 43.5,18.5C 43.5,22.5 43.5,26.5 43.5,30.5C 42.596,31.209 42.2627,32.209 42.5,33.5C 41.1667,33.8333 41.1667,34.1667 42.5,34.5C 41.8333,35.1667 41.1667,35.8333 40.5,36.5C 39.8333,36.5 39.5,36.8333 39.5,37.5C 38.8333,37.5 38.5,37.8333 38.5,38.5C 37.8333,38.5 37.5,38.8333 37.5,39.5C 36.8333,39.5 36.5,39.8333 36.5,40.5C 35.8333,41.1667 35.1667,41.8333 34.5,42.5C 34.1667,41.1667 33.8333,41.1667 33.5,42.5C 32.209,42.2627 31.209,42.596 30.5,43.5C 26.5,43.5 22.5,43.5 18.5,43.5C 17.791,42.596 16.791,42.2627 15.5,42.5C 15.1667,41.1667 14.8333,41.1667 14.5,42.5C 13.8333,41.8333 13.1667,41.1667 12.5,40.5C 12.5,39.8333 12.1667,39.5 11.5,39.5C 11.5,38.8333 11.1667,38.5 10.5,38.5C 10.5,37.8333 10.1667,37.5 9.5,37.5C 9.5,36.8333 9.16667,36.5 8.5,36.5C 8.5,35.8333 8.16667,35.5 7.5,35.5C 7.67158,34.5084 7.33825,33.8417 6.5,33.5C 6.73731,32.209 6.40397,31.209 5.5,30.5C 5.5,26.5 5.5,22.5 5.5,18.5C 6.40397,17.791 6.73731,16.791 6.5,15.5C 7.33825,15.1583 7.67158,14.4916 7.5,13.5C 8.16667,13.5 8.5,13.1667 8.5,12.5C 9.16667,12.5 9.5,12.1667 9.5,11.5C 10.1667,11.5 10.5,11.1667 10.5,10.5C 11.1667,10.5 11.5,10.1667 11.5,9.5C 12.1667,9.5 12.5,9.16667 12.5,8.5C 13.1667,8.5 13.5,8.16667 13.5,7.5C 14.4916,7.67158 15.1583,7.33825 15.5,6.5C 16.791,6.73731 17.791,6.40397 18.5,5.5 Z M 38.5,16.5 C 38.891,26.0479 34.5577,32.3812 25.5,35.5C 21.878,36.6586 18.2113,36.8253 14.5,36C 14.8333,35.6667 15.1667,35.3333 15.5,35C 14.376,34.7508 13.376,34.2508 12.5,33.5C 14.5,29.1667 16.5,24.8333 18.5,20.5C 16.5,19.8333 14.5,19.1667 12.5,18.5C 13.1667,17.1667 13.8333,15.8333 14.5,14.5C 20.7542,12.8824 27.0875,11.7158 33.5,11C 30.8318,9.12648 27.8318,8.29314 24.5,8.5C 16.7596,8.61424 11.5929,12.2809 9,19.5C 7.83038,36.6795 15.6637,43.1795 32.5,39C 40.5711,33.0991 42.5711,25.5991 38.5,16.5 Z M 37.5,15.5 C 37.0189,12.4357 35.6856,11.6024 33.5,13C 34.6934,14.0946 36.0267,14.928 37.5,15.5 Z M 30.5,28.5 C 34.9357,25.9619 36.269,22.2952 34.5,17.5C 28.9376,15.4532 23.2709,15.1199 17.5,16.5C 22.1315,17.3283 26.7982,17.8283 31.5,18C 32.9018,21.6826 32.5684,25.1826 30.5,28.5 Z M 22.5,19.5 C 20.5989,23.6974 18.5989,27.864 16.5,32C 18.8333,32.6667 21.1667,32.6667 23.5,32C 22.1667,31.6667 20.8333,31.3333 19.5,31C 20.8288,27.6835 22.1621,24.3502 23.5,21C 23.4301,20.2352 23.0967,19.7352 22.5,19.5 Z M 26.5,20.5 C 26.3354,22.8268 25.6687,24.9935 24.5,27C 27.8929,26.4594 29.5596,24.2928 29.5,20.5C 28.5,20.5 27.5,20.5 26.5,20.5 Z"/></g>
</svg>
