<?xml version="1.0" encoding="UTF-8"?>
<svg version="1.1" xmlns="http://www.w3.org/2000/svg" width="506" height="78">
<path d="M0 0 C2.9375 0.1875 2.9375 0.1875 3.9375 1.1875 C4.02508003 3.18714982 4.04446576 5.1898611 4.03515625 7.19140625 C4.03265869 8.28525635 4.03016113 9.37910645 4.02758789 10.50610352 C4.01848389 11.90658936 4.00937988 13.3070752 4 14.75 C3.979375 19.184375 3.95875 23.61875 3.9375 28.1875 C16.1475 28.1875 28.3575 28.1875 40.9375 28.1875 C40.89790599 19.34677137 40.89790599 19.34677137 40.84741211 10.50610352 C40.84491455 9.41225342 40.84241699 8.31840332 40.83984375 7.19140625 C40.83460693 6.06549072 40.82937012 4.9395752 40.82397461 3.77954102 C40.9375 1.1875 40.9375 1.1875 41.9375 0.1875 C44.875 0 44.875 0 47.9375 0.1875 C50.71411248 2.96411248 50.19693041 4.62805562 50.2121582 8.51733398 C50.21726913 9.16629639 50.22238007 9.81525879 50.22764587 10.48388672 C50.24157115 12.6338823 50.24058292 14.78355837 50.23828125 16.93359375 C50.24216672 18.42570618 50.24650107 19.91781749 50.25126648 21.40992737 C50.25873508 24.53967878 50.25843293 27.6693174 50.25317383 30.79907227 C50.24737967 34.81208899 50.26430535 38.82464411 50.2875185 42.8375845 C50.30224302 45.91993413 50.30312929 49.00217229 50.30000877 52.08455086 C50.30052268 53.56414771 50.30577346 55.04375069 50.31582069 56.52331352 C50.32814297 58.59193874 50.32141985 60.65966097 50.30981445 62.72827148 C50.31044388 63.90582504 50.3110733 65.0833786 50.3117218 66.2966156 C49.9375 69.1875 49.9375 69.1875 48.78923035 71.15370178 C46.9375 72.1875 46.9375 72.1875 40.9375 71.1875 C40.9375 59.6375 40.9375 48.0875 40.9375 36.1875 C28.7275 36.1875 16.5175 36.1875 3.9375 36.1875 C3.9375 47.7375 3.9375 59.2875 3.9375 71.1875 C0.4725 71.6825 0.4725 71.6825 -3.0625 72.1875 C-5.85872582 69.39127418 -5.31608491 67.66668682 -5.32128906 63.75 C-5.3247937 63.08967773 -5.32829834 62.42935547 -5.33190918 61.74902344 C-5.34072681 59.56174268 -5.33487743 57.37478417 -5.328125 55.1875 C-5.32947165 53.67057228 -5.33141217 52.15364499 -5.33392334 50.63671875 C-5.33687464 47.45568742 -5.33257684 44.27476831 -5.32324219 41.09375 C-5.31184757 37.01122098 -5.31840702 32.92895491 -5.33038712 28.84643555 C-5.33760561 25.71352142 -5.33531786 22.58066989 -5.33013153 19.44775391 C-5.328795 17.94221974 -5.33044288 16.43667993 -5.33509064 14.93115234 C-5.34015579 12.82894788 -5.33244627 10.72717242 -5.32128906 8.625 C-5.31969788 7.42746094 -5.31810669 6.22992188 -5.31646729 4.99609375 C-4.94919834 0.93451054 -4.04452048 0.2476237 0 0 Z " fill="#FFFFFF" transform="translate(5.0625,4.8125)"/>
<path d="M0 0 C2.95507812 0.04931641 2.95507812 0.04931641 6 1 C7.56054688 3.22021484 7.56054688 3.22021484 8.71875 6.2109375 C9.16951904 7.33765869 9.62028809 8.46437988 10.0847168 9.62524414 C10.5568987 10.87500384 11.02864789 12.1249271 11.5 13.375 C12.00398349 14.65902009 12.51029781 15.94212748 13.01879883 17.22436523 C14.11120091 19.98834969 15.18992369 22.75718204 16.26025391 25.52978516 C18.0804986 30.22953651 19.96401597 34.90275629 21.85546875 39.57421875 C26.85347864 51.94121633 26.85347864 51.94121633 29.26171875 57.97265625 C29.52470261 58.6256218 29.78768646 59.27858734 30.05863953 59.95133972 C32.67611982 66.52753763 32.67611982 66.52753763 33 69 C31.3125 71.3125 31.3125 71.3125 29 73 C26.9375 73.0625 26.9375 73.0625 25 72 C22 67 22 67 17 55 C2.15 54.505 2.15 54.505 -13 54 C-13.99 56.97 -14.98 59.94 -16 63 C-17.11089465 66.14899271 -18.22032147 69.16383385 -20 72 C-22.5625 73.1875 -22.5625 73.1875 -25 73 C-25.99 72.34 -26.98 71.68 -28 71 C-28.85349243 65.50515431 -26.72511914 61.15209631 -24.59765625 56.21875 C-24.24425171 55.37558731 -23.89084717 54.53242462 -23.5267334 53.66371155 C-22.38187181 50.9381867 -21.22243204 48.21914086 -20.0625 45.5 C-19.27686588 43.63838118 -18.49228026 41.77631953 -17.70874023 39.91381836 C-16.54622908 37.15145116 -15.38279214 34.38951053 -14.21498108 31.62937927 C-10.8872013 23.76288799 -7.66227844 15.85814612 -4.51391602 7.91796875 C-2.21672793 2.21672793 -2.21672793 2.21672793 0 0 Z M2 18 C-0.82584151 23.52039391 -3.39141875 29.07800953 -5.75 34.8125 C-6.06582031 35.56208984 -6.38164062 36.31167969 -6.70703125 37.08398438 C-8.49489331 41.39795087 -8.49489331 41.39795087 -9 46 C-1.41 46 6.18 46 14 46 C10.50779514 36.5791683 6.95393081 27.23750207 3 18 C2.67 18 2.34 18 2 18 Z " fill="#FFFFFF" transform="translate(473,5)"/>
<path d="M0 0 C5.84347011 3.39658683 9.31535503 8.28970757 11.73046875 14.5 C12.61549494 19.16650173 13.61382779 24.73328192 11.41796875 29.125 C-0.79203125 29.125 -13.00203125 29.125 -25.58203125 29.125 C-22.8169564 37.54148801 -22.8169564 37.54148801 -17.58203125 43.125 C-12.62865764 44.77612454 -7.61809505 44.98467138 -2.76953125 42.9375 C-0.42160095 41.16226734 -0.42160095 41.16226734 1.29296875 38.375 C2.34484375 37.26125 2.34484375 37.26125 3.41796875 36.125 C7.16796875 36.3125 7.16796875 36.3125 10.41796875 37.125 C11.16796875 38.6875 11.16796875 38.6875 11.41796875 41.125 C8.85654108 47.25015313 5.3938853 50.30044569 -0.58203125 53.125 C-7.45955983 55.33363723 -15.07975032 54.80872372 -21.73046875 52.171875 C-28.77978869 48.18618356 -32.12101147 42.70428684 -34.58203125 35.125 C-36.00082172 26.18598384 -35.75834542 15.82458709 -30.58203125 8.125 C-22.6435018 -0.72505162 -11.50211779 -3.89784324 0 0 Z M-19.58203125 10.125 C-23.21716701 13.76013576 -23.86980681 15.98832669 -25.58203125 21.125 C-16.01203125 21.125 -6.44203125 21.125 3.41796875 21.125 C1.39203908 12.60095611 1.39203908 12.60095611 -2.33203125 9.625 C-8.9015479 6.59291539 -13.22427358 6.52626924 -19.58203125 10.125 Z " fill="#FFFFFF" transform="translate(99.58203125,22.875)"/>
<path d="M0 0 C0.93767212 -0.00315216 1.87534424 -0.00630432 2.84143066 -0.009552 C3.86119995 -0.00752777 4.88096924 -0.00550354 5.93164062 -0.00341797 C7.49078186 -0.00485306 7.49078186 -0.00485306 9.0814209 -0.00631714 C11.28393616 -0.0069991 13.48645342 -0.00514374 15.68896484 -0.00097656 C19.07328782 0.00437146 22.45747806 -0.00092105 25.84179688 -0.00732422 C27.97591175 -0.00666344 30.11002655 -0.00538228 32.24414062 -0.00341797 C33.26390991 -0.0054422 34.2836792 -0.00746643 35.33435059 -0.009552 C36.74085876 -0.00482376 36.74085876 -0.00482376 38.17578125 0 C39.42035095 0.00119339 39.42035095 0.00119339 40.69006348 0.00241089 C42.58789062 0.12939453 42.58789062 0.12939453 43.58789062 1.12939453 C44.01490909 5.80688912 43.45263731 7.99985724 40.52539062 11.62939453 C36.2234615 17.22037689 32.23000044 22.97501557 28.27539062 28.81689453 C26.9709592 30.73764138 25.66627267 32.65821501 24.36132812 34.57861328 C23.72549805 35.51495605 23.08966797 36.45129883 22.43457031 37.41601562 C19.3374472 41.96670657 16.2148216 46.49976974 13.08862305 51.03051758 C12.68232666 51.62002197 12.27603027 52.20952637 11.85742188 52.81689453 C11.51300049 53.31576172 11.1685791 53.81462891 10.8137207 54.32861328 C9.05243195 56.91599943 7.32159982 59.52347767 5.58789062 62.12939453 C7.16256104 62.11368408 7.16256104 62.11368408 8.76904297 62.09765625 C12.65654095 62.06151 16.54402403 62.03851375 20.43164062 62.01953125 C22.11558529 62.00946136 23.79951242 61.99580465 25.48339844 61.97851562 C27.90108563 61.95431028 30.31854206 61.94292157 32.73632812 61.93408203 C33.49158783 61.92375946 34.24684753 61.91343689 35.0249939 61.90280151 C36.88083042 61.90240135 38.73608343 62.00716737 40.58789062 62.12939453 C41.24789062 62.78939453 41.90789062 63.44939453 42.58789062 64.12939453 C42.21289062 67.25439453 42.21289062 67.25439453 41.58789062 70.12939453 C34.78860643 70.17998393 27.98937053 70.2150812 21.18994141 70.23925781 C18.87546983 70.24933345 16.56101104 70.26299428 14.24658203 70.28027344 C10.9254237 70.30445318 7.60443322 70.31586183 4.28320312 70.32470703 C3.24358429 70.3350296 2.20396545 70.34535217 1.13284302 70.35598755 C0.17199799 70.35613861 -0.78884705 70.35628967 -1.77880859 70.35644531 C-2.62708221 70.36088654 -3.47535583 70.36532776 -4.34933472 70.36990356 C-6.41210938 70.12939453 -6.41210938 70.12939453 -8.41210938 68.12939453 C-8.28387691 63.06421228 -5.17573238 59.59645885 -2.28710938 55.69189453 C-1.19159658 54.17624003 -0.09793746 52.65924447 0.99414062 51.14111328 C1.57679688 50.33335449 2.15945313 49.5255957 2.75976562 48.69335938 C5.9795856 44.17752747 9.0951038 39.59100537 12.21289062 35.00439453 C12.84412842 34.0768335 13.47536621 33.14927246 14.12573242 32.19360352 C19.32758729 24.53706217 24.4733776 16.84449602 29.58789062 9.12939453 C28.5631665 9.10433838 27.53844238 9.07928223 26.48266602 9.0534668 C22.69379386 8.9595497 18.90511182 8.85929136 15.11645508 8.75708008 C13.47424759 8.71367156 11.83199323 8.67200095 10.18969727 8.63208008 C7.83400317 8.57452013 5.47854635 8.51078562 3.12304688 8.44580078 C2.38449966 8.42908829 1.64595245 8.41237579 0.88502502 8.39515686 C-4.29823767 8.24326624 -4.29823767 8.24326624 -5.41210938 7.12939453 C-5.53710938 4.12939453 -5.53710938 4.12939453 -5.41210938 1.12939453 C-3.82528948 -0.45742536 -2.19962592 0.00210917 0 0 Z " fill="#FFFFFF" transform="translate(339.412109375,5.87060546875)"/>
<path d="M0 0 C0.93767212 -0.00315216 1.87534424 -0.00630432 2.84143066 -0.009552 C3.86119995 -0.00752777 4.88096924 -0.00550354 5.93164062 -0.00341797 C7.49078186 -0.00485306 7.49078186 -0.00485306 9.0814209 -0.00631714 C11.28393616 -0.0069991 13.48645342 -0.00514374 15.68896484 -0.00097656 C19.07328782 0.00437146 22.45747806 -0.00092105 25.84179688 -0.00732422 C27.97591175 -0.00666344 30.11002655 -0.00538228 32.24414062 -0.00341797 C33.26390991 -0.0054422 34.2836792 -0.00746643 35.33435059 -0.009552 C36.74085876 -0.00482376 36.74085876 -0.00482376 38.17578125 0 C39.42035095 0.00119339 39.42035095 0.00119339 40.69006348 0.00241089 C42.58789062 0.12939453 42.58789062 0.12939453 43.58789062 1.12939453 C43.60745902 8.39905205 39.6190045 13.00574568 35.46289062 18.69189453 C34.00345835 20.73668354 32.54515382 22.78227786 31.08789062 24.82861328 C30.34152344 25.86937012 29.59515625 26.91012695 28.82617188 27.98242188 C25.29957412 32.94073831 21.87963796 37.97002952 18.46289062 43.00439453 C17.8607373 43.88812744 17.25858398 44.77186035 16.63818359 45.68237305 C12.92115043 51.14251281 9.24143558 56.62658606 5.58789062 62.12939453 C7.16256104 62.11368408 7.16256104 62.11368408 8.76904297 62.09765625 C12.65654095 62.06151 16.54402403 62.03851375 20.43164062 62.01953125 C22.11558529 62.00946136 23.79951242 61.99580465 25.48339844 61.97851562 C27.90108563 61.95431028 30.31854206 61.94292157 32.73632812 61.93408203 C33.49158783 61.92375946 34.24684753 61.91343689 35.0249939 61.90280151 C36.88083042 61.90240135 38.73608343 62.00716737 40.58789062 62.12939453 C41.24789062 62.78939453 41.90789062 63.44939453 42.58789062 64.12939453 C42.03233507 68.68495009 42.03233507 68.68495009 40.58789062 70.12939453 C39.08370323 70.22251343 37.57517706 70.24685481 36.06811523 70.24291992 C34.62673439 70.24280663 34.62673439 70.24280663 33.15623474 70.24269104 C32.11145462 70.23752975 31.0666745 70.23236847 29.99023438 70.22705078 C28.92623917 70.22563583 27.86224396 70.22422089 26.76600647 70.22276306 C23.35243979 70.21714517 19.93893763 70.20458964 16.52539062 70.19189453 C14.21744886 70.18688184 11.90950607 70.18231853 9.6015625 70.17822266 C3.93031636 70.16716993 -1.7408919 70.1504144 -7.41210938 70.12939453 C-8.5703125 65.44824219 -8.5703125 65.44824219 -7.14648438 62.57861328 C-6.49164063 61.66724609 -5.83679688 60.75587891 -5.16210938 59.81689453 C-4.42089844 58.76373047 -3.6796875 57.71056641 -2.91601562 56.62548828 C-2.51012207 56.06071777 -2.10422852 55.49594727 -1.68603516 54.9140625 C0.08803721 52.42872923 1.8065872 49.90675188 3.52905273 47.38549805 C6.34694924 43.26325208 9.18867869 39.1573482 12.02441406 35.04736328 C13.4421513 32.99188623 14.85878569 30.93565204 16.27539062 28.87939453 C16.69022705 28.27901367 17.10506348 27.67863281 17.5324707 27.06005859 C21.61861032 21.12843735 25.60164206 15.128378 29.58789062 9.12939453 C28.5631665 9.10433838 27.53844238 9.07928223 26.48266602 9.0534668 C22.69379386 8.9595497 18.90511182 8.85929136 15.11645508 8.75708008 C13.47424759 8.71367156 11.83199323 8.67200095 10.18969727 8.63208008 C7.83400317 8.57452013 5.47854635 8.51078562 3.12304688 8.44580078 C2.38449966 8.42908829 1.64595245 8.41237579 0.88502502 8.39515686 C-4.29823767 8.24326624 -4.29823767 8.24326624 -5.41210938 7.12939453 C-5.53710938 4.12939453 -5.53710938 4.12939453 -5.41210938 1.12939453 C-3.82528948 -0.45742536 -2.19962592 0.00210917 0 0 Z " fill="#FFFFFF" transform="translate(396.412109375,5.87060546875)"/>
<path d="M0 0 C1.10794922 -0.02449219 2.21589844 -0.04898437 3.35742188 -0.07421875 C11.09918702 -0.10168805 17.8991415 0.69319926 23.81225586 6.08422852 C28.54534819 11.12936036 30.40129296 16.24211124 30.1875 23.23046875 C29.3968849 30.01246393 27.02188935 35.72332463 21.9375 40.375 C13.59098686 45.74419984 4.45390834 44.6771082 -5.0625 44.375 C-5.0625 52.955 -5.0625 61.535 -5.0625 70.375 C-11.0625 71.375 -11.0625 71.375 -12.91423035 70.33546448 C-14.57246223 67.50433097 -14.43659023 65.27964541 -14.43481445 62.00756836 C-14.44104324 60.69288071 -14.44727203 59.37819305 -14.45368958 58.02366638 C-14.44500242 56.58738832 -14.43568453 55.15111395 -14.42578125 53.71484375 C-14.42526265 52.24418641 -14.42578034 50.77352836 -14.42729187 49.3028717 C-14.42720217 46.22191001 -14.41677642 43.14121012 -14.39868164 40.06030273 C-14.3759744 36.10669713 -14.37545412 32.15347341 -14.38219929 28.19982052 C-14.38553666 25.16382946 -14.37891394 22.12792585 -14.36907005 19.09195137 C-14.36521523 17.63387064 -14.364071 16.1757802 -14.3656559 14.71769524 C-14.36602575 12.68278706 -14.35194717 10.64789158 -14.3371582 8.61303711 C-14.33255081 7.45404404 -14.32794342 6.29505096 -14.32319641 5.10093689 C-13.6370522 -2.07363756 -5.49595131 0.00624185 0 0 Z M-5.0625 8.375 C-5.0625 17.615 -5.0625 26.855 -5.0625 36.375 C8.00485778 36.91390949 8.00485778 36.91390949 18.5 30.875 C20.51394098 25.97149152 20.73458533 21.60387975 19.9375 16.375 C17.88607382 12.78500419 15.83940294 10.75214222 11.9375 9.375 C6.12600983 7.95756337 1.18914692 8.375 -5.0625 8.375 Z " fill="#FFFFFF" transform="translate(272.0625,5.625)"/>
<path d="M0 0 C6.74066958 4.11368486 10.42899069 9.9409946 12.5 17.4375 C12.93468961 20.40982807 13.0247665 23.31125079 13 26.3125 C12.99572998 27.09971436 12.99145996 27.88692871 12.98706055 28.69799805 C12.74998297 36.82481622 10.24386274 42.21346128 5 48.375 C-2.10246635 54.23453474 -8.44103961 55.28562519 -17.5 54.4375 C-25.49026183 52.4557131 -30.29510831 47.50145698 -34.59765625 40.703125 C-38.23548678 33.05522081 -37.67878797 21.35597975 -35.375 13.375 C-32.92102306 7.42183373 -29.20660303 3.03362168 -23.5 0 C-16.29570411 -2.8158923 -7.14424378 -3.16760137 0 0 Z M-23.5 11.4375 C-27.85701732 17.89790499 -28.5249231 24.82822242 -27.5 32.4375 C-25.85594479 37.84441953 -23.26481601 41.30275262 -18.5 44.4375 C-15.02363841 46.1756808 -11.300959 45.89258953 -7.5 45.4375 C-2.63020316 43.04854306 -0.18086997 40.10419958 2.5 35.4375 C4.62417681 29.06496958 4.68259293 21.04937449 1.875 14.875 C-0.35123746 11.23136567 -2.51922207 9.17456674 -6.5 7.4375 C-13.05325123 6.49992605 -18.60788153 6.54538153 -23.5 11.4375 Z " fill="#FFFFFF" transform="translate(212.5,22.5625)"/>
<path d="M0 0 C3.5 0.125 3.5 0.125 4.5 1.125 C4.61849489 3.14399631 4.66741174 5.16710268 4.68945312 7.18945312 C4.71452942 9.13652161 4.71452942 9.13652161 4.7401123 11.1229248 C4.74679428 11.82086655 4.75347626 12.51880829 4.76036072 13.23789978 C4.78132712 15.4142547 4.80835385 17.59045765 4.83703613 19.76672363 C4.90699704 25.17210394 4.96631958 30.57759216 5.02606201 35.98309326 C5.07691478 40.54787052 5.1317189 45.11256647 5.19187927 49.67723083 C5.21854417 51.82715469 5.23930406 53.97708572 5.2598877 56.1270752 C5.28496399 58.07414368 5.28496399 58.07414368 5.31054688 60.06054688 C5.32307495 61.21002808 5.33560303 62.35950928 5.34851074 63.54382324 C5.20909155 66.05557932 5.20909155 66.05557932 6.5 67.125 C7.61375 67.08375 8.7275 67.0425 9.875 67 C13.5 67.125 13.5 67.125 15.5 68.3125 C16.5 70.125 16.5 70.125 16.375 72.6875 C15.5 75.125 15.5 75.125 12.5 77.125 C7.8135743 77.89268116 4.30309989 77.53385085 0.0625 75.375 C-3.32967064 72.39650871 -4.38102222 70.59555006 -4.74723816 66.06916809 C-4.74581314 64.87305405 -4.74438812 63.67694 -4.74291992 62.44458008 C-4.74481827 61.78235947 -4.74671661 61.12013885 -4.74867249 60.43785095 C-4.75236697 58.25662265 -4.74169799 56.07572977 -4.73046875 53.89453125 C-4.72927642 52.37806741 -4.7288239 50.86160283 -4.7290802 49.34513855 C-4.72751781 46.17185829 -4.71924459 42.99869125 -4.70581055 39.82543945 C-4.68877754 35.74965543 -4.68499757 31.67399526 -4.68575573 27.59817982 C-4.68548446 24.46960764 -4.68001091 21.34106275 -4.67275429 18.21249962 C-4.6695641 16.70893243 -4.6675994 15.20536215 -4.66686058 13.70179176 C-4.66470316 11.60688574 -4.65597337 9.51211376 -4.64526367 7.41723633 C-4.64145187 6.22350906 -4.63764008 5.0297818 -4.63371277 3.79988098 C-4.43157517 -0.2438167 -4.18030889 0.14929675 0 0 Z " fill="#FFFFFF" transform="translate(154.5,-0.125)"/>
<path d="M0 0 C1.134375 0.020625 2.26875 0.04125 3.4375 0.0625 C4.81459579 2.81669159 4.59276381 5.06627023 4.62695312 8.14868164 C4.64367065 9.42663101 4.66038818 10.70458038 4.6776123 12.02125549 C4.68429428 12.70589937 4.69097626 13.39054325 4.69786072 14.09593391 C4.71886696 16.23456368 4.74588966 18.37304125 4.77453613 20.51158142 C4.8444127 25.8217922 4.90384192 31.13211089 4.96356201 36.44244385 C5.01441638 40.93031219 5.06921145 45.41809792 5.12937927 49.90585136 C5.15603484 52.01810659 5.1767982 54.1303692 5.1973877 56.24269104 C5.22246399 58.15488686 5.22246399 58.15488686 5.24804688 60.10571289 C5.26057495 61.23441299 5.27310303 62.3631131 5.28601074 63.52601624 C5.15209193 65.99832287 5.15209193 65.99832287 6.4375 67.0625 C7.95219448 67.29442865 9.47504562 67.47465238 11 67.625 C11.82628906 67.70878906 12.65257812 67.79257813 13.50390625 67.87890625 C14.14199219 67.93949219 14.78007812 68.00007813 15.4375 68.0625 C15.7675 70.0425 16.0975 72.0225 16.4375 74.0625 C13.80822604 76.80609022 11.67116026 77.32736519 8 77.4375 C4.03893739 77.28790322 1.52916642 76.69950959 -1.5625 74.0625 C-4.50902137 70.05828164 -4.93399058 67.19567195 -4.91894531 62.26855469 C-4.92098969 61.60618805 -4.92303406 60.94382141 -4.92514038 60.26138306 C-4.92813388 58.08542727 -4.90972136 55.9102399 -4.890625 53.734375 C-4.88756582 52.21934191 -4.88569091 50.70430601 -4.88494873 49.18927002 C-4.88035534 46.02190305 -4.86596207 42.85479169 -4.84375 39.6875 C-4.81537158 35.61958565 -4.80452784 31.55187159 -4.8000679 27.48386765 C-4.79592134 24.35957829 -4.78611188 21.23532971 -4.77419281 18.1110611 C-4.76848227 16.61028623 -4.76372616 15.10950742 -4.75992584 13.6087265 C-4.75308527 11.51870238 -4.73946618 9.42884005 -4.72363281 7.33886719 C-4.71680481 6.14815613 -4.70997681 4.95744507 -4.70294189 3.73065186 C-4.48856319 -0.34217091 -4.22506549 0.07412396 0 0 Z " fill="#FFFFFF" transform="translate(125.5625,-0.0625)"/>
<path d="M0 0 C3.0625 0.1875 3.0625 0.1875 5.0625 2.1875 C5.32319641 4.95140076 5.32319641 4.95140076 5.3371582 8.51733398 C5.34226913 9.16629639 5.34738007 9.81525879 5.35264587 10.48388672 C5.36657115 12.6338823 5.36558292 14.78355837 5.36328125 16.93359375 C5.36716672 18.42570618 5.37150107 19.91781749 5.37626648 21.40992737 C5.38373508 24.53967878 5.38343293 27.6693174 5.37817383 30.79907227 C5.37237967 34.81208899 5.38930535 38.82464411 5.4125185 42.8375845 C5.42724302 45.91993413 5.42812929 49.00217229 5.42500877 52.08455086 C5.42552268 53.56414771 5.43077346 55.04375069 5.44082069 56.52331352 C5.45314297 58.59193874 5.44641985 60.65966097 5.43481445 62.72827148 C5.43544388 63.90582504 5.4360733 65.0833786 5.4367218 66.2966156 C5.0625 69.1875 5.0625 69.1875 3.91423035 71.15370178 C1.12781716 72.70932191 -0.93520639 71.92139399 -3.9375 71.1875 C-3.96062545 62.07790835 -3.97841612 52.96832674 -3.98931217 43.8587122 C-3.99454056 39.62918629 -4.0016374 35.3996804 -4.01293945 31.17016602 C-4.02376991 27.09181457 -4.02977717 23.01348243 -4.03237724 18.93511772 C-4.03423121 17.37572361 -4.03785127 15.8163306 -4.04323006 14.25694466 C-4.05044262 12.08020838 -4.05149085 9.90355286 -4.05102539 7.72680664 C-4.053246 6.48548477 -4.05546661 5.2441629 -4.05775452 3.96522522 C-3.89209248 0.13864443 -3.8420572 0.24523769 0 0 Z " fill="#FFFFFF" transform="translate(316.9375,4.8125)"/>
</svg>
