<?xml version="1.0" encoding="UTF-8"?>
<!DOCTYPE svg PUBLIC "-//W3C//DTD SVG 1.1//EN" "http://www.w3.org/Graphics/SVG/1.1/DTD/svg11.dtd">
<svg xmlns="http://www.w3.org/2000/svg" version="1.1" width="541px" height="100px" style="shape-rendering:geometricPrecision; text-rendering:geometricPrecision; image-rendering:optimizeQuality; fill-rule:evenodd; clip-rule:evenodd" xmlns:xlink="http://www.w3.org/1999/xlink">
<g><path style="opacity:0.918" fill="#000000" d="M 149.5,12.5 C 150.332,33.9961 150.832,55.6628 151,77.5C 151.5,78 152,78.5 152.5,79C 155.553,79.1786 158.553,79.6786 161.5,80.5C 163.136,83.6381 162.47,85.9715 159.5,87.5C 151.925,89.1989 146.258,86.8655 142.5,80.5C 142.333,58.1642 142.5,35.8308 143,13.5C 144.842,11.1656 147.009,10.8323 149.5,12.5 Z"/></g>
<g><path style="opacity:0.946" fill="#000000" d="M 178.5,12.5 C 179.332,33.6627 179.832,54.9961 180,76.5C 180.374,77.4162 180.874,78.2496 181.5,79C 184.553,79.1786 187.553,79.6786 190.5,80.5C 192.018,83.7608 191.352,86.4275 188.5,88.5C 184.573,87.8622 180.573,87.0289 176.5,86C 174.19,84.3626 172.69,82.196 172,79.5C 171.333,57.5 171.333,35.5 172,13.5C 173.842,11.1656 176.009,10.8323 178.5,12.5 Z"/></g>
<g><path style="opacity:0.722" fill="#e49963" d="M 34.5,14.5 C 33.1667,14.5 31.8333,14.5 30.5,14.5C 27.0991,12.904 24.0991,13.5707 21.5,16.5C 22.1756,13.6612 24.0089,11.9946 27,11.5C 29.7196,12.2333 32.2196,13.2333 34.5,14.5 Z"/></g>
<g><path style="opacity:1" fill="#fa6d0d" d="M 30.5,14.5 C 27.7079,14.6225 25.7079,15.9558 24.5,18.5C 23.5054,29.3206 23.1721,40.3206 23.5,51.5C 23.5,60.1667 23.5,68.8333 23.5,77.5C 23.0257,62.304 22.359,51.6373 21.5,45.5C 20.1667,35.8333 20.1667,26.1667 21.5,16.5C 24.0991,13.5707 27.0991,12.904 30.5,14.5 Z"/></g>
<g><path style="opacity:1" fill="#fa6905" d="M 70.5,13.5 C 72.099,13.2322 73.4324,13.5655 74.5,14.5C 70.1157,13.5755 66.7824,14.9088 64.5,18.5C 63.3475,24.3188 63.1808,30.3188 64,36.5C 64.8303,31.1924 65.3303,25.8591 65.5,20.5C 65.5106,18.9826 66.1772,17.8159 67.5,17C 69.7116,16.2109 71.7116,16.3775 73.5,17.5C 71.8908,34.0363 72.2241,50.5363 74.5,67C 74.2813,71.5311 73.7813,76.0311 73,80.5C 72.3021,81.6906 71.4687,82.6906 70.5,83.5C 68.124,82.488 67.124,80.6546 67.5,78C 68.5525,69.508 68.5525,61.008 67.5,52.5C 63.3156,51.1265 58.9823,50.4598 54.5,50.5C 48.1809,51.3302 41.8476,51.9969 35.5,52.5C 34.6704,60.9903 34.1704,69.657 34,78.5C 33.5776,80.4257 32.4109,81.4257 30.5,81.5C 29.5416,81.0472 28.7083,80.3805 28,79.5C 27.4333,63.4997 26.9333,47.4997 26.5,31.5C 26.3343,27.1539 26.501,22.8206 27,18.5C 29.0164,16.3918 31.1831,16.0584 33.5,17.5C 33.5,25.1667 33.5,32.8333 33.5,40.5C 34.8333,40.5 36.1667,40.5 37.5,40.5C 38.1667,40.5 38.8333,40.5 39.5,40.5C 46.5593,39.5297 53.5593,39.3631 60.5,40C 61.3166,32.2457 61.8166,24.4124 62,16.5C 64.1962,13.8748 67.0295,12.8748 70.5,13.5 Z"/></g>
<g><path style="opacity:1" fill="#29190f" d="M 30.5,14.5 C 31.8333,14.5 33.1667,14.5 34.5,14.5C 35.4584,14.9528 36.2917,15.6195 37,16.5C 37.4988,20.4862 37.6655,24.4862 37.5,28.5C 36.6805,25.6946 36.1805,22.6946 36,19.5C 35.5831,18.244 34.7498,17.5774 33.5,17.5C 31.1831,16.0584 29.0164,16.3918 27,18.5C 26.501,22.8206 26.3343,27.1539 26.5,31.5C 25.8333,27.1667 25.1667,22.8333 24.5,18.5C 25.7079,15.9558 27.7079,14.6225 30.5,14.5 Z"/></g>
<g><path style="opacity:0.929" fill="#0d0603" d="M 74.5,14.5 C 77.7755,17.3148 79.1088,20.9814 78.5,25.5C 78.1667,29.5 77.8333,33.5 77.5,37.5C 79.1963,52.7985 79.6963,68.1318 79,83.5C 78.7996,85.3197 77.9663,86.653 76.5,87.5C 68.0289,89.1309 63.6956,85.7976 63.5,77.5C 63.5,72.8333 63.5,68.1667 63.5,63.5C 63.821,60.4231 62.821,58.0897 60.5,56.5C 53.8092,56.4542 47.1426,56.7875 40.5,57.5C 40.6664,65.84 40.4997,74.1733 40,82.5C 39.1237,84.6355 37.6237,85.9688 35.5,86.5C 31.3237,86.8317 27.8237,85.4984 25,82.5C 24.8303,71.9919 24.3303,61.6585 23.5,51.5C 23.1721,40.3206 23.5054,29.3206 24.5,18.5C 25.1667,22.8333 25.8333,27.1667 26.5,31.5C 26.9333,47.4997 27.4333,63.4997 28,79.5C 28.7083,80.3805 29.5416,81.0472 30.5,81.5C 32.1534,82.7994 33.6534,82.4661 35,80.5C 35.4998,71.1726 35.6665,61.8393 35.5,52.5C 41.8476,51.9969 48.1809,51.3302 54.5,50.5C 58.9823,50.4598 63.3156,51.1265 67.5,52.5C 68.5525,61.008 68.5525,69.508 67.5,78C 67.124,80.6546 68.124,82.488 70.5,83.5C 72.9115,83.8633 74.4115,82.8633 75,80.5C 74.78,62.6583 74.9466,44.825 75.5,27C 75.3333,24.1667 75.1667,21.3333 75,18.5C 74.6174,17.944 74.1174,17.6107 73.5,17.5C 71.7116,16.3775 69.7116,16.2109 67.5,17C 66.1772,17.8159 65.5106,18.9826 65.5,20.5C 64.6618,20.1583 64.3284,19.4916 64.5,18.5C 66.7824,14.9088 70.1157,13.5755 74.5,14.5 Z"/></g>
<g><path style="opacity:0.979" fill="#ebe5e1" d="M 33.5,17.5 C 34.7498,17.5774 35.5831,18.244 36,19.5C 36.1805,22.6946 36.6805,25.6946 37.5,28.5C 37.5,32.5 37.5,36.5 37.5,40.5C 36.1667,40.5 34.8333,40.5 33.5,40.5C 33.5,32.8333 33.5,25.1667 33.5,17.5 Z"/></g>
<g><path style="opacity:0.862" fill="#020202" d="M 283.5,16.5 C 291.387,17.2342 299.387,18.2342 307.5,19.5C 308.416,19.4573 309.083,19.1239 309.5,18.5C 322.04,24.9305 325.874,34.9305 321,48.5C 316.97,57.1078 310.136,61.6078 300.5,62C 296.514,62.4988 292.514,62.6655 288.5,62.5C 288.666,70.5069 288.5,78.5069 288,86.5C 285.095,90.327 282.095,90.327 279,86.5C 278.333,64.1667 278.333,41.8333 279,19.5C 279.589,17.1367 281.089,16.1367 283.5,16.5 Z M 288.5,25.5 C 294.994,25.1658 301.327,25.9992 307.5,28C 312.259,32.4908 313.759,37.9908 312,44.5C 310.542,46.96 308.709,49.1266 306.5,51C 300.593,52.3608 294.593,52.8608 288.5,52.5C 288.5,43.5 288.5,34.5 288.5,25.5 Z"/></g>
<g><path style="opacity:0.886" fill="#030303" d="M 335.5,15.5 C 339.925,14.7566 342.592,16.5899 343.5,21C 342.998,42.5744 342.498,64.4078 342,86.5C 339.763,90.0199 337.096,90.3532 334,87.5C 333.333,64.1667 333.333,40.8333 334,17.5C 334.717,16.9558 335.217,16.2891 335.5,15.5 Z"/></g>
<g><path style="opacity:1" fill="#3b3b3b" d="M 403.5,18.5 C 387.806,18.5272 371.806,18.5272 355.5,18.5C 355.611,17.8826 355.944,17.3826 356.5,17C 371.833,16.3333 387.167,16.3333 402.5,17C 403.056,17.3826 403.389,17.8826 403.5,18.5 Z"/></g>
<g><path style="opacity:1" fill="#373737" d="M 460.5,23.5 C 459.549,22.0813 459.216,20.4147 459.5,18.5C 443.833,18.5 428.167,18.5 412.5,18.5C 412.611,17.8826 412.944,17.3826 413.5,17C 428.833,16.3333 444.167,16.3333 459.5,17C 461.608,19.0164 461.942,21.1831 460.5,23.5 Z"/></g>
<g><path style="opacity:0.926" fill="#020202" d="M 493.5,16.5 C 496.562,16.8414 498.728,18.5081 500,21.5C 508.5,42.5 517,63.5 525.5,84.5C 524.209,87.1291 522.209,88.7957 519.5,89.5C 516.476,84.1416 513.809,78.475 511.5,72.5C 501.522,71.5015 491.522,71.1681 481.5,71.5C 480.923,70.2267 480.257,70.2267 479.5,71.5C 477.333,76.5 475.167,81.5 473,86.5C 471.556,88.1554 469.722,88.822 467.5,88.5C 466.053,87.8658 465.387,86.6991 465.5,85C 474.172,61.7988 483.505,38.9655 493.5,16.5 Z M 495.5,34.5 C 499.764,43.0882 503.764,51.9215 507.5,61C 500.342,62.4622 493.008,62.9622 485.5,62.5C 488.636,53.0907 491.97,43.7574 495.5,34.5 Z"/></g>
<g><path style="opacity:0.714" fill="#525252" d="M 283.5,16.5 C 292.324,15.9976 300.991,16.6643 309.5,18.5C 309.083,19.1239 308.416,19.4573 307.5,19.5C 299.387,18.2342 291.387,17.2342 283.5,16.5 Z"/></g>
<g><path style="opacity:0.931" fill="#010101" d="M 355.5,18.5 C 371.806,18.5272 387.806,18.5272 403.5,18.5C 404.613,19.9464 404.78,21.6131 404,23.5C 391.5,41.8333 379,60.1667 366.5,78.5C 378.152,79.3325 389.819,79.8325 401.5,80C 404.106,82.2995 404.106,84.4662 401.5,86.5C 401.565,86.0618 401.399,85.7284 401,85.5C 400.25,86.1258 399.416,86.6258 398.5,87C 383.256,87.4549 368.256,87.6215 353.5,87.5C 352.371,85.3718 352.204,83.0385 353,80.5C 365.87,62.5942 378.37,44.4275 390.5,26C 378.833,25.6667 367.167,25.3333 355.5,25C 354.189,22.7265 354.189,20.5598 355.5,18.5 Z"/></g>
<g><path style="opacity:0.936" fill="#030303" d="M 412.5,18.5 C 428.167,18.5 443.833,18.5 459.5,18.5C 459.216,20.4147 459.549,22.0813 460.5,23.5C 448.435,41.9485 436.101,60.2819 423.5,78.5C 435.152,79.3325 446.819,79.8325 458.5,80C 460.291,81.7897 460.625,83.623 459.5,85.5C 459.565,85.0618 459.399,84.7284 459,84.5C 458.097,85.7014 456.931,86.5348 455.5,87C 440.256,87.4549 425.256,87.6215 410.5,87.5C 409.371,85.3718 409.204,83.0385 410,80.5C 422.377,62.2464 434.877,44.0797 447.5,26C 435.833,25.6667 424.167,25.3333 412.5,25C 411.189,22.7265 411.189,20.5598 412.5,18.5 Z"/></g>
<g><path style="opacity:1" fill="#7d3301" d="M 64.5,18.5 C 64.3284,19.4916 64.6618,20.1583 65.5,20.5C 65.3303,25.8591 64.8303,31.1924 64,36.5C 63.1808,30.3188 63.3475,24.3188 64.5,18.5 Z"/></g>
<g><path style="opacity:0.909" fill="#010101" d="M 118.5,34.5 C 127.809,38.9229 132.476,46.4229 132.5,57C 132.506,59.2998 132.006,61.4664 131,63.5C 118.895,64.1574 106.729,64.824 94.5,65.5C 97.9703,78.6074 105.97,82.4407 118.5,77C 119.928,74.8153 121.595,72.8153 123.5,71C 131.356,70.5389 133.189,73.7055 129,80.5C 127.223,82.7899 125.056,84.4566 122.5,85.5C 99.7269,91.7302 87.3936,83.0635 85.5,59.5C 87.9016,39.8005 98.9016,31.4672 118.5,34.5 Z M 106.5,41.5 C 114.978,41.312 120.311,45.312 122.5,53.5C 113.525,54.4982 104.525,54.8315 95.5,54.5C 96.6858,47.9869 100.352,43.6536 106.5,41.5 Z"/></g>
<g><path style="opacity:0.369" fill="#343333" d="M 232.5,34.5 C 224.247,33.2976 216.247,33.2976 208.5,34.5C 216.61,30.5416 224.61,30.5416 232.5,34.5 Z"/></g>
<g><path style="opacity:0.899" fill="#010101" d="M 232.5,34.5 C 241.633,40.1501 246.3,48.4834 246.5,59.5C 246.682,66.7757 244.848,73.4423 241,79.5C 239.223,81.7899 237.056,83.4566 234.5,84.5C 224.857,88.9097 215.524,88.4097 206.5,83C 203.727,80.6166 201.561,77.7833 200,74.5C 198.604,68.2099 197.104,62.2099 195.5,56.5C 196.764,47.2985 201.097,39.9651 208.5,34.5C 216.247,33.2976 224.247,33.2976 232.5,34.5 Z M 219.5,40.5 C 230.665,42.1673 236.332,48.6673 236.5,60C 236.528,73.6432 229.862,79.9765 216.5,79C 207.011,73.5635 203.511,65.3968 206,54.5C 208.052,47.2839 212.552,42.6172 219.5,40.5 Z"/></g>
<g><path style="opacity:1" fill="#f88234" d="M 70.5,13.5 C 67.0295,12.8748 64.1962,13.8748 62,16.5C 61.8166,24.4124 61.3166,32.2457 60.5,40C 53.5593,39.3631 46.5593,39.5297 39.5,40.5C 45.9089,38.7345 52.5756,38.0678 59.5,38.5C 59.4311,30.7981 59.9311,23.1314 61,15.5C 63.9007,11.8881 67.0674,11.2215 70.5,13.5 Z"/></g>
<g><path style="opacity:0.769" fill="#2b2a2a" d="M 178.5,12.5 C 176.009,10.8323 173.842,11.1656 172,13.5C 171.333,35.5 171.333,57.5 172,79.5C 172.69,82.196 174.19,84.3626 176.5,86C 180.573,87.0289 184.573,87.8622 188.5,88.5C 178.428,91.2433 172.261,87.5767 170,77.5C 169.333,56.8333 169.333,36.1667 170,15.5C 171.547,10.3025 174.38,9.30252 178.5,12.5 Z"/></g>
<g><path style="opacity:0.894" fill="#e3c8b7" d="M 73.5,17.5 C 74.1174,17.6107 74.6174,17.944 75,18.5C 75.1667,21.3333 75.3333,24.1667 75.5,27C 74.9466,44.825 74.78,62.6583 75,80.5C 74.4115,82.8633 72.9115,83.8633 70.5,83.5C 71.4687,82.6906 72.3021,81.6906 73,80.5C 73.7813,76.0311 74.2813,71.5311 74.5,67C 72.2241,50.5363 71.8908,34.0363 73.5,17.5 Z"/></g>
<g><path style="opacity:0.06" fill="#252525" d="M 195.5,56.5 C 197.104,62.2099 198.604,68.2099 200,74.5C 201.561,77.7833 203.727,80.6166 206.5,83C 215.524,88.4097 224.857,88.9097 234.5,84.5C 222.174,92.0096 211.007,90.343 201,79.5C 196.808,72.3988 194.975,64.7321 195.5,56.5 Z"/></g>
<g><path style="opacity:0.51" fill="#793f15" d="M 60.5,56.5 C 62.821,58.0897 63.821,60.4231 63.5,63.5C 62.8333,63.8333 62.1667,64.1667 61.5,64.5C 60.7347,61.9039 60.4013,59.2372 60.5,56.5 Z"/></g>
<g><path style="opacity:0.327" fill="#2d2d2d" d="M 519.5,89.5 C 522.209,88.7957 524.209,87.1291 525.5,84.5C 517,63.5 508.5,42.5 500,21.5C 498.728,18.5081 496.562,16.8414 493.5,16.5C 495.831,15.2091 497.997,15.5424 500,17.5C 508.667,38.8333 517.333,60.1667 526,81.5C 527.666,87.3313 525.499,89.998 519.5,89.5 Z"/></g>
<g><path style="opacity:1" fill="#c9590f" d="M 63.5,63.5 C 63.5,68.1667 63.5,72.8333 63.5,77.5C 62.8333,78.1667 62.1667,78.8333 61.5,79.5C 61.0132,74.6905 61.0132,69.6905 61.5,64.5C 62.1667,64.1667 62.8333,63.8333 63.5,63.5 Z"/></g>
<g><path style="opacity:0.2" fill="#ce7436" d="M 23.5,77.5 C 23.6716,78.4916 23.3382,79.1583 22.5,79.5C 21.5227,68.2476 21.1894,56.9143 21.5,45.5C 22.359,51.6373 23.0257,62.304 23.5,77.5 Z"/></g>
<g><path style="opacity:0.837" fill="#2b2a2a" d="M 149.5,12.5 C 147.009,10.8323 144.842,11.1656 143,13.5C 142.5,35.8308 142.333,58.1642 142.5,80.5C 142.5,81.1667 142.5,81.8333 142.5,82.5C 141.732,81.7375 141.232,80.7375 141,79.5C 140.333,57.5 140.333,35.5 141,13.5C 142.028,11.4841 143.695,10.4841 146,10.5C 147.699,10.3866 148.866,11.0532 149.5,12.5 Z"/></g>
<g><path style="opacity:0.192" fill="#303030" d="M 481.5,71.5 C 479.05,77.0768 476.55,82.7434 474,88.5C 471.726,89.8112 469.56,89.8112 467.5,88.5C 469.722,88.822 471.556,88.1554 473,86.5C 475.167,81.5 477.333,76.5 479.5,71.5C 480.257,70.2267 480.923,70.2267 481.5,71.5 Z"/></g>
<g><path style="opacity:0.235" fill="#3a3837" d="M 118.5,34.5 C 98.9016,31.4672 87.9016,39.8005 85.5,59.5C 87.3936,83.0635 99.7269,91.7302 122.5,85.5C 109.561,92.1434 98.3942,89.8101 89,78.5C 81.5189,63.333 83.3522,49.4996 94.5,37C 102.188,32.1658 110.188,31.3325 118.5,34.5 Z"/></g>
<g><path style="opacity:1" fill="#e4dfdb" d="M 35.5,52.5 C 35.6665,61.8393 35.4998,71.1726 35,80.5C 33.6534,82.4661 32.1534,82.7994 30.5,81.5C 32.4109,81.4257 33.5776,80.4257 34,78.5C 34.1704,69.657 34.6704,60.9903 35.5,52.5 Z"/></g>
<g><path style="opacity:0.725" fill="#593e2f" d="M 23.5,51.5 C 24.3303,61.6585 24.8303,71.9919 25,82.5C 27.8237,85.4984 31.3237,86.8317 35.5,86.5C 28.8932,88.6939 24.5599,86.3606 22.5,79.5C 23.3382,79.1583 23.6716,78.4916 23.5,77.5C 23.5,68.8333 23.5,60.1667 23.5,51.5 Z"/></g>
<g><path style="opacity:0.591" fill="#4a4542" d="M 63.5,77.5 C 63.6956,85.7976 68.0289,89.1309 76.5,87.5C 72.5544,90.1382 68.5544,89.9715 64.5,87C 62.7976,84.7646 61.7976,82.2646 61.5,79.5C 62.1667,78.8333 62.8333,78.1667 63.5,77.5 Z"/></g>
<g><path style="opacity:0.237" fill="#424242" d="M 401.5,86.5 C 401.389,87.1174 401.056,87.6174 400.5,88C 384.661,88.828 368.995,88.6613 353.5,87.5C 368.256,87.6215 383.256,87.4549 398.5,87C 399.416,86.6258 400.25,86.1258 401,85.5C 401.399,85.7284 401.565,86.0618 401.5,86.5 Z"/></g>
<g><path style="opacity:0.245" fill="#434343" d="M 459.5,85.5 C 459.047,86.4584 458.381,87.2917 457.5,88C 441.661,88.828 425.995,88.6613 410.5,87.5C 425.256,87.6215 440.256,87.4549 455.5,87C 456.931,86.5348 458.097,85.7014 459,84.5C 459.399,84.7284 459.565,85.0618 459.5,85.5 Z"/></g>
<g><path style="opacity:0.018" fill="#474747" d="M 142.5,80.5 C 146.258,86.8655 151.925,89.1989 159.5,87.5C 154.919,90.0775 150.253,89.9108 145.5,87C 144.117,85.7292 143.117,84.2292 142.5,82.5C 142.5,81.8333 142.5,81.1667 142.5,80.5 Z"/></g>
</svg>
